<svg width="143" height="30" viewBox="0 0 143 30" fill="none" xmlns="http://www.w3.org/2000/svg">
<g filter="url(#filter0_d_31_2)">
<path d="M17.7734 1V17H14.8516L7.89063 6.92969H7.77344V17H4.39062V1H7.35938L14.2656 11.0625H14.4063V1H17.7734ZM90.2207 5.60156C90.1582 4.97135 89.89 4.48177 89.416 4.13281C88.9421 3.78385 88.2988 3.60937 87.4863 3.60937C86.9342 3.60937 86.4681 3.6875 86.0879 3.84375C85.7077 3.99479 85.416 4.20573 85.2129 4.47656C85.015 4.7474 84.916 5.05469 84.916 5.39844C84.9056 5.6849 84.9655 5.9349 85.0957 6.14844C85.2311 6.36198 85.416 6.54687 85.6504 6.70312C85.8848 6.85417 86.1556 6.98698 86.4629 7.10156C86.7702 7.21094 87.0983 7.30469 87.4473 7.38281L88.8848 7.72656C89.5827 7.88281 90.2233 8.09115 90.8066 8.35156C91.39 8.61198 91.8952 8.93229 92.3223 9.3125C92.7493 9.69271 93.0801 10.1406 93.3145 10.6562C93.554 11.1719 93.6764 11.763 93.6816 12.4297C93.6764 13.4089 93.4264 14.2578 92.9316 14.9766C92.4421 15.6901 91.7337 16.2448 90.8066 16.6406C89.8848 17.0312 88.7728 17.2266 87.4707 17.2266C86.179 17.2266 85.054 17.0286 84.0957 16.6328C83.1426 16.237 82.3978 15.651 81.8613 14.875C81.3301 14.0937 81.0514 13.1276 81.0254 11.9766H84.2988C84.3353 12.513 84.4889 12.9609 84.7598 13.3203C85.0358 13.6745 85.403 13.9427 85.8613 14.125C86.3249 14.3021 86.8483 14.3906 87.4316 14.3906C88.0046 14.3906 88.502 14.3073 88.9238 14.1406C89.3509 13.974 89.6816 13.7422 89.916 13.4453C90.1504 13.1484 90.2676 12.8073 90.2676 12.4219C90.2676 12.0625 90.1608 11.7604 89.9473 11.5156C89.7389 11.2708 89.4316 11.0625 89.0254 10.8906C88.6243 10.7187 88.1322 10.5625 87.5488 10.4219L85.8066 9.98437C84.4577 9.65625 83.3926 9.14323 82.6113 8.44531C81.8301 7.7474 81.4421 6.80729 81.4473 5.625C81.4421 4.65625 81.6999 3.8099 82.2207 3.08594C82.7467 2.36198 83.4681 1.79687 84.3848 1.39062C85.3014 0.984374 86.3431 0.781249 87.5098 0.781249C88.6973 0.781249 89.7337 0.984374 90.6191 1.39062C91.5098 1.79687 92.2025 2.36198 92.6973 3.08594C93.1921 3.8099 93.4473 4.64844 93.4629 5.60156H90.2207Z" fill="#FF8A00"/>
<path d="M23.9277 17.2266C23.1621 17.2266 22.4798 17.0938 21.8809 16.8281C21.2819 16.5573 20.8079 16.1589 20.459 15.6328C20.1152 15.1016 19.9434 14.4401 19.9434 13.6484C19.9434 12.9818 20.0658 12.4219 20.3105 11.9687C20.5553 11.5156 20.8887 11.151 21.3105 10.875C21.7324 10.599 22.2116 10.3906 22.748 10.25C23.2897 10.1094 23.8574 10.0104 24.4512 9.95312C25.1491 9.88021 25.7116 9.8125 26.1387 9.75C26.5658 9.68229 26.8757 9.58333 27.0684 9.45312C27.2611 9.32292 27.3574 9.13021 27.3574 8.875V8.82812C27.3574 8.33333 27.2012 7.95052 26.8887 7.67969C26.5814 7.40885 26.1439 7.27344 25.5762 7.27344C24.9772 7.27344 24.5007 7.40625 24.1465 7.67187C23.7923 7.93229 23.5579 8.26042 23.4434 8.65625L20.3652 8.40625C20.5215 7.67708 20.8288 7.04687 21.2871 6.51562C21.7454 5.97917 22.3366 5.56771 23.0605 5.28125C23.7897 4.98958 24.6335 4.84375 25.5918 4.84375C26.2585 4.84375 26.8965 4.92187 27.5059 5.07812C28.1204 5.23437 28.6647 5.47656 29.1387 5.80469C29.6178 6.13281 29.9954 6.55469 30.2715 7.07031C30.5475 7.58073 30.6855 8.19271 30.6855 8.90625V17H27.5293V15.3359H27.4355C27.2428 15.7109 26.985 16.0417 26.6621 16.3281C26.3392 16.6094 25.9512 16.8307 25.498 16.9922C25.0449 17.1484 24.5215 17.2266 23.9277 17.2266ZM24.8809 14.9297C25.3704 14.9297 25.8027 14.8333 26.1777 14.6406C26.5527 14.4427 26.847 14.1771 27.0605 13.8438C27.2741 13.5104 27.3809 13.1328 27.3809 12.7109V11.4375C27.2767 11.5052 27.1335 11.5677 26.9512 11.625C26.7741 11.6771 26.5736 11.7266 26.3496 11.7734C26.1257 11.8151 25.9017 11.8542 25.6777 11.8906C25.4538 11.9219 25.2507 11.9505 25.0684 11.9766C24.6777 12.0339 24.3366 12.125 24.0449 12.25C23.7533 12.375 23.5267 12.5443 23.3652 12.7578C23.2038 12.9661 23.123 13.2266 23.123 13.5391C23.123 13.9922 23.2871 14.3385 23.6152 14.5781C23.9486 14.8125 24.3704 14.9297 24.8809 14.9297ZM44.0254 5L39.8301 17H36.0801L31.8848 5H35.4004L37.8926 13.5859H38.0176L40.502 5H44.0254ZM45.791 17V1H49.1191V7.01562H49.2207C49.3665 6.69271 49.5775 6.36458 49.8535 6.03125C50.1348 5.69271 50.4993 5.41146 50.9473 5.1875C51.4004 4.95833 51.9629 4.84375 52.6348 4.84375C53.5098 4.84375 54.3171 5.07292 55.0566 5.53125C55.7962 5.98437 56.3874 6.66927 56.8301 7.58594C57.2728 8.4974 57.4941 9.64062 57.4941 11.0156C57.4941 12.3542 57.278 13.4844 56.8457 14.4062C56.4186 15.3229 55.8353 16.0182 55.0957 16.4922C54.3613 16.9609 53.5384 17.1953 52.627 17.1953C51.9811 17.1953 51.4316 17.0885 50.9785 16.875C50.5306 16.6615 50.1634 16.3932 49.877 16.0703C49.5905 15.7422 49.3717 15.4115 49.2207 15.0781H49.0723V17H45.791ZM49.0488 11C49.0488 11.7135 49.1478 12.3359 49.3457 12.8672C49.5436 13.3984 49.8301 13.8125 50.2051 14.1094C50.5801 14.401 51.0358 14.5469 51.5723 14.5469C52.1139 14.5469 52.5723 14.3984 52.9473 14.1016C53.3223 13.7995 53.6061 13.3828 53.7988 12.8516C53.9967 12.3151 54.0957 11.6979 54.0957 11C54.0957 10.3073 53.9993 9.69792 53.8066 9.17187C53.6139 8.64583 53.3301 8.23437 52.9551 7.9375C52.5801 7.64062 52.1191 7.49219 51.5723 7.49219C51.0306 7.49219 50.5723 7.63542 50.1973 7.92187C49.8275 8.20833 49.5436 8.61458 49.3457 9.14062C49.1478 9.66667 49.0488 10.2865 49.0488 11ZM63.1367 17.2266C62.3711 17.2266 61.6888 17.0938 61.0898 16.8281C60.4909 16.5573 60.0169 16.1589 59.668 15.6328C59.3242 15.1016 59.1523 14.4401 59.1523 13.6484C59.1523 12.9818 59.2747 12.4219 59.5195 11.9687C59.7643 11.5156 60.0977 11.151 60.5195 10.875C60.9414 10.599 61.4206 10.3906 61.957 10.25C62.4987 10.1094 63.0664 10.0104 63.6602 9.95312C64.3581 9.88021 64.9206 9.8125 65.3477 9.75C65.7747 9.68229 66.0846 9.58333 66.2773 9.45312C66.4701 9.32292 66.5664 9.13021 66.5664 8.875V8.82812C66.5664 8.33333 66.4102 7.95052 66.0977 7.67969C65.7904 7.40885 65.3529 7.27344 64.7852 7.27344C64.1862 7.27344 63.7096 7.40625 63.3555 7.67187C63.0013 7.93229 62.7669 8.26042 62.6523 8.65625L59.5742 8.40625C59.7305 7.67708 60.0378 7.04687 60.4961 6.51562C60.9544 5.97917 61.5456 5.56771 62.2695 5.28125C62.9987 4.98958 63.8424 4.84375 64.8008 4.84375C65.4674 4.84375 66.1055 4.92187 66.7148 5.07812C67.3294 5.23437 67.8737 5.47656 68.3477 5.80469C68.8268 6.13281 69.2044 6.55469 69.4805 7.07031C69.7565 7.58073 69.8945 8.19271 69.8945 8.90625V17H66.7383V15.3359H66.6445C66.4518 15.7109 66.194 16.0417 65.8711 16.3281C65.5482 16.6094 65.1602 16.8307 64.707 16.9922C64.2539 17.1484 63.7305 17.2266 63.1367 17.2266ZM64.0898 14.9297C64.5794 14.9297 65.0117 14.8333 65.3867 14.6406C65.7617 14.4427 66.056 14.1771 66.2695 13.8438C66.4831 13.5104 66.5898 13.1328 66.5898 12.7109V11.4375C66.4857 11.5052 66.3424 11.5677 66.1602 11.625C65.9831 11.6771 65.7826 11.7266 65.5586 11.7734C65.3346 11.8151 65.1107 11.8542 64.8867 11.8906C64.6628 11.9219 64.4596 11.9505 64.2773 11.9766C63.8867 12.0339 63.5456 12.125 63.2539 12.25C62.9622 12.375 62.7357 12.5443 62.5742 12.7578C62.4128 12.9661 62.332 13.2266 62.332 13.5391C62.332 13.9922 62.4961 14.3385 62.8242 14.5781C63.1576 14.8125 63.5794 14.9297 64.0898 14.9297ZM72.4766 17V5H75.7031V7.09375H75.8281C76.0469 6.34896 76.4141 5.78646 76.9297 5.40625C77.4453 5.02083 78.0391 4.82812 78.7109 4.82812C78.8776 4.82812 79.0573 4.83854 79.25 4.85937C79.4427 4.88021 79.612 4.90885 79.7578 4.94531V7.89844C79.6016 7.85156 79.3854 7.8099 79.1094 7.77344C78.8333 7.73698 78.5807 7.71875 78.3516 7.71875C77.862 7.71875 77.4245 7.82552 77.0391 8.03906C76.6589 8.2474 76.3568 8.53906 76.1328 8.91406C75.9141 9.28906 75.8047 9.72135 75.8047 10.2109V17H72.4766Z" fill="#101010"/>
<path d="M102.277 5V7.5H95.0508V5H102.277ZM96.6914 2.125H100.02V13.3125C100.02 13.6198 100.066 13.8594 100.16 14.0312C100.254 14.1979 100.384 14.3151 100.551 14.3828C100.723 14.4505 100.921 14.4844 101.145 14.4844C101.301 14.4844 101.457 14.4714 101.613 14.4453C101.77 14.4141 101.889 14.3906 101.973 14.375L102.496 16.8516C102.329 16.9036 102.095 16.9635 101.793 17.0313C101.491 17.1042 101.124 17.1484 100.691 17.1641C99.8893 17.1953 99.1862 17.0885 98.582 16.8437C97.9831 16.599 97.5169 16.2187 97.1836 15.7031C96.8503 15.1875 96.6862 14.5365 96.6914 13.75V2.125ZM109.738 17.2344C108.525 17.2344 107.475 16.9766 106.59 16.4609C105.71 15.9401 105.03 15.2161 104.551 14.2891C104.072 13.3568 103.832 12.276 103.832 11.0469C103.832 9.80729 104.072 8.72396 104.551 7.79687C105.03 6.86458 105.71 6.14062 106.59 5.625C107.475 5.10417 108.525 4.84375 109.738 4.84375C110.952 4.84375 111.999 5.10417 112.879 5.625C113.764 6.14062 114.447 6.86458 114.926 7.79687C115.405 8.72396 115.645 9.80729 115.645 11.0469C115.645 12.276 115.405 13.3568 114.926 14.2891C114.447 15.2161 113.764 15.9401 112.879 16.4609C111.999 16.9766 110.952 17.2344 109.738 17.2344ZM109.754 14.6562C110.306 14.6562 110.767 14.5 111.137 14.1875C111.507 13.8698 111.785 13.4375 111.973 12.8906C112.165 12.3437 112.262 11.7214 112.262 11.0234C112.262 10.3255 112.165 9.70313 111.973 9.15625C111.785 8.60937 111.507 8.17708 111.137 7.85937C110.767 7.54167 110.306 7.38281 109.754 7.38281C109.197 7.38281 108.728 7.54167 108.348 7.85937C107.973 8.17708 107.689 8.60937 107.496 9.15625C107.309 9.70313 107.215 10.3255 107.215 11.0234C107.215 11.7214 107.309 12.3437 107.496 12.8906C107.689 13.4375 107.973 13.8698 108.348 14.1875C108.728 14.5 109.197 14.6562 109.754 14.6562ZM117.809 17V5H121.035V7.09375H121.16C121.379 6.34896 121.746 5.78646 122.262 5.40625C122.777 5.02083 123.371 4.82812 124.043 4.82812C124.21 4.82812 124.389 4.83854 124.582 4.85937C124.775 4.88021 124.944 4.90885 125.09 4.94531V7.89844C124.934 7.85156 124.717 7.8099 124.441 7.77344C124.165 7.73698 123.913 7.71875 123.684 7.71875C123.194 7.71875 122.757 7.82552 122.371 8.03906C121.991 8.2474 121.689 8.53906 121.465 8.91406C121.246 9.28906 121.137 9.72135 121.137 10.2109V17H117.809ZM129.23 21.5C128.809 21.5 128.413 21.4661 128.043 21.3984C127.678 21.3359 127.376 21.2552 127.137 21.1562L127.887 18.6719C128.277 18.7917 128.629 18.8568 128.941 18.8672C129.259 18.8776 129.533 18.8047 129.762 18.6484C129.996 18.4922 130.186 18.2266 130.332 17.8516L130.527 17.3438L126.223 5H129.723L132.207 13.8125H132.332L134.84 5H138.363L133.699 18.2969C133.475 18.9427 133.171 19.5052 132.785 19.9844C132.405 20.4688 131.923 20.8411 131.34 21.1016C130.757 21.3672 130.053 21.5 129.23 21.5Z" fill="black"/>
</g>
<defs>
<filter id="filter0_d_31_2" x="0.390625" y="0.78125" width="141.973" height="28.7188" filterUnits="userSpaceOnUse" color-interpolation-filters="sRGB">
<feFlood flood-opacity="0" result="BackgroundImageFix"/>
<feColorMatrix in="SourceAlpha" type="matrix" values="0 0 0 0 0 0 0 0 0 0 0 0 0 0 0 0 0 0 127 0" result="hardAlpha"/>
<feOffset dy="4"/>
<feGaussianBlur stdDeviation="2"/>
<feComposite in2="hardAlpha" operator="out"/>
<feColorMatrix type="matrix" values="0 0 0 0 0 0 0 0 0 0 0 0 0 0 0 0 0 0 0.25 0"/>
<feBlend mode="normal" in2="BackgroundImageFix" result="effect1_dropShadow_31_2"/>
<feBlend mode="normal" in="SourceGraphic" in2="effect1_dropShadow_31_2" result="shape"/>
</filter>
</defs>
</svg>
